<svg id="Icons" xmlns="http://www.w3.org/2000/svg" viewBox="0 0 512 512"><defs><style>.cls-1{fill:#8d00af;}.cls-2{fill:#aa0dd1;}.cls-3{fill:#c2aacf;}.cls-4{fill:#decee5;}.cls-5{fill:#f4e6f4;}.cls-6{fill:#e52e44;}.cls-7{fill:#fa4654;}.cls-8{fill:#fb626e;}.cls-9{fill:#fff;}.cls-10{fill:#ebd9ea;}.cls-11{fill:#f39e22;}.cls-12{fill:#f9c744;}.cls-13{fill:#c44a1a;}</style></defs><title>019-beer-export</title><circle class="cls-1" cx="256" cy="256" r="255.98"/><path class="cls-2" d="M0,255.76A255.63,255.63,0,0,1,103.44,50.44c113.54-84.25,273.87-60.52,358.12,53a254.76,254.76,0,0,1,49.93,136,76.89,76.89,0,0,0-14.24,6.88c-23.84,14.74-42,41.9-69.91,44.44-19.15,1.75-37.29-9.24-51.1-22.62s-24.87-29.51-39.4-42.12a112.53,112.53,0,0,0-157.7,10c-14.17,15.89-26.53,37.44-47.68,40-28.75,3.44-51.22-31.63-80-28.95-9.3.87-17.72,5.66-26.73,8A54.5,54.5,0,0,1,0,255.76Z"/><path class="cls-3" d="M342.15,426.47v7.14a6.63,6.63,0,0,1-6.63,6.63h-159a6.63,6.63,0,0,1-6.63-6.63v-7.14a6.63,6.63,0,0,1,6.63-6.63h159A6.63,6.63,0,0,1,342.15,426.47Z"/><path class="cls-4" d="M342.15,426.47v7.14a6.63,6.63,0,0,1-6.63,6.63H198.6a6.63,6.63,0,0,1-6.63-6.63v-7.14a6.63,6.63,0,0,1,6.63-6.63H335.52A6.63,6.63,0,0,1,342.15,426.47Z"/><ellipse class="cls-5" cx="260.63" cy="428.08" rx="21.85" ry="6.59"/><ellipse class="cls-5" cx="301.64" cy="428.08" rx="15.59" ry="4.27"/><path class="cls-6" d="M356.85,173.56V353a92.67,92.67,0,0,1-9.58,41.06l-12.69,25.76H177.42l-12.69-25.76A92.67,92.67,0,0,1,155.15,353V173.56a92.67,92.67,0,0,1,9.58-41.06l12.69-25.76H334.58l12.69,25.76A92.67,92.67,0,0,1,356.85,173.56Z"/><path class="cls-7" d="M356.85,173.56V353a92.67,92.67,0,0,1-9.58,41.06l-12.69,25.76H201.07l-12.71-25.76A92.94,92.94,0,0,1,178.79,353V173.56a92.94,92.94,0,0,1,9.57-41.06l12.71-25.76H334.58l12.69,25.76A92.67,92.67,0,0,1,356.85,173.56Z"/><ellipse class="cls-8" cx="293.42" cy="138.67" rx="22.71" ry="36.56" transform="translate(78.15 381.53) rotate(-73.74)"/><ellipse class="cls-8" cx="335.41" cy="183.41" rx="11.9" ry="21.68" transform="translate(-37.21 98.02) rotate(-15.76)"/><path class="cls-9" d="M356.85,229.3H333.21c-12.37-33.15-42.27-56.54-77.21-56.54s-64.84,23.39-77.21,56.54H155.15v68h23.64c12.37,33.15,42.27,56.54,77.21,56.54s64.84-23.39,77.21-56.54h23.64Z"/><rect class="cls-10" x="155.15" y="229.3" width="23.64" height="67.98"/><ellipse class="cls-11" cx="256" cy="263.29" rx="60.39" ry="65.63"/><ellipse class="cls-12" cx="256" cy="263.29" rx="45.08" ry="48.99"/><rect class="cls-13" x="230.67" y="235.03" width="50.09" height="13.28" rx="6.64"/><rect class="cls-13" x="214.23" y="258.98" width="82.98" height="13.28" rx="6.64"/><path class="cls-3" d="M342.15,93v7.14a6.63,6.63,0,0,1-6.63,6.63h-159a6.63,6.63,0,0,1-6.63-6.63V93a6.63,6.63,0,0,1,6.63-6.63h159A6.63,6.63,0,0,1,342.15,93Z"/><path class="cls-4" d="M342.15,93v7.14a6.63,6.63,0,0,1-6.63,6.63H198.6a6.63,6.63,0,0,1-6.63-6.63V93a6.63,6.63,0,0,1,6.63-6.63H335.52A6.63,6.63,0,0,1,342.15,93Z"/><ellipse class="cls-5" cx="260.63" cy="94.58" rx="21.85" ry="6.59"/><ellipse class="cls-5" cx="301.64" cy="94.58" rx="15.59" ry="4.27"/><path class="cls-3" d="M298.13,31.19H288.06a18.6,18.6,0,0,0-18.23,22.28l6.63,32.87h33.26l6.64-32.87A18.6,18.6,0,0,0,298.13,31.19ZM308.5,53.38a11.86,11.86,0,0,1-11.85,11.86h-7.11a11.86,11.86,0,0,1-11.86-11.86V51.84A11.86,11.86,0,0,1,289.54,40h7.11A11.86,11.86,0,0,1,308.5,51.84Z"/></svg>